<svg xmlns="http://www.w3.org/2000/svg" viewBox="0 0 32 32"><defs><style>.cls-1{fill:#231f20;}</style></defs><g id="penguin"><path class="cls-1" d="M27,27.75A4.19,4.19,0,0,0,23.1,25a.71.71,0,0,0-.29,0,1,1,0,0,0-1.07.53,5,5,0,0,1-.52.82A5.25,5.25,0,0,1,18.83,28H15V23.34a5.23,5.23,0,0,0,.54.61,1.61,1.61,0,0,0,2.7-.73.8.8,0,0,0,0-.31c-.13-2.31-.22-4.64-.27-6.93l0-1c0-.76,0-1.4,0-1.94.07-1.46.31-2,.69-2.33A1.66,1.66,0,0,1,19,10.5c0,.16,0,.32,0,.49a9.36,9.36,0,0,0,1.43,4.93A13.75,13.75,0,0,1,22,20.19a16.12,16.12,0,0,1,.26,1.88,1,1,0,1,0,2-.14A18.61,18.61,0,0,0,24,19.82,15.4,15.4,0,0,0,22.2,15,7.52,7.52,0,0,1,21,11a8.71,8.71,0,0,1,.14-1.33A10.18,10.18,0,0,0,23,8.87a11.79,11.79,0,0,0,2.73-2.19,1,1,0,0,0,0-1.34A3.86,3.86,0,0,0,22.33,4a3.61,3.61,0,0,0-1.44.62,5.66,5.66,0,0,0-10,.86L8.83,10.4a16,16,0,0,0-.92,9.27l.73,3.65a3.25,3.25,0,0,1-.59,2.61L6.2,28.4a1,1,0,0,0-.09,1.05A1,1,0,0,0,7,30h3a1,1,0,0,0,0-2H9l.65-.87a5.26,5.26,0,0,0,.95-4.2l-.72-3.65a13.9,13.9,0,0,1,.8-8.11l2.05-4.91A3.67,3.67,0,0,1,19.4,6a2.45,2.45,0,0,1,.15,1.85l-.09.29h0a4.53,4.53,0,0,0-2.13,1.1A5,5,0,0,0,16,13c0,.58,0,1.26,0,2.06l0,1c0,1.83.11,3.68.2,5.52a4.25,4.25,0,0,1-.5-1.44L15,15.84A1,1,0,0,0,13,16V29a1,1,0,0,0,1,1H26a1,1,0,0,0,1-.77A3.09,3.09,0,0,0,27,27.75ZM22.66,6a1.45,1.45,0,0,1,.81.1,9.59,9.59,0,0,1-1.47,1c-.11.07-.24.12-.36.18a4,4,0,0,0,0-.69A1.84,1.84,0,0,1,22.66,6Zm-.23,22c.12-.13.24-.24.35-.38a5.89,5.89,0,0,0,.41-.57,2.49,2.49,0,0,1,1.73.95Z"/><path class="cls-1" d="M18,7a1,1,0,0,0-1-1h0a1,1,0,1,0,1,1Z"/></g></svg>